<svg width="512" height="512" viewBox="0 0 512 512" fill="none" xmlns="http://www.w3.org/2000/svg">
<path d="M377.4 32C338.5 32 306.8 63.7 306.8 102.7C306.8 119.8 313 136.4 324.3 149.3C334.3 160.8 347.8 168.7 362.5 171.8V214.9L256 270.3L149.6 214.9V171.8C181.8 164.9 205.3 136.2 205.3 102.7C205.3 63.7 173.6 32 134.7 32C95.8 32 64 63.7 64 102.7C64 119.8 70.2 136.4 81.5 149.3C91.5 160.8 105 168.7 119.7 171.8V229.2C119.7 231.9 121.2 234.3 123.6 235.5L241.1 296.3V340.2C208.9 347.1 185.4 375.8 185.4 409.3C185.4 448.3 217.1 480 256 480C294.9 480 326.6 448.3 326.6 409.3C326.6 392.2 320.4 375.6 309.1 362.7C299.1 351.2 285.6 343.3 270.9 340.2V296.3L388.4 235.5C390.8 234.3 392.3 231.9 392.3 229.2V171.8C424.5 164.9 448 136.2 448 102.7C448 63.7 416.3 32 377.4 32V32ZM93.8 102.7C93.8 80.2 112.1 61.9 134.6 61.9C157.1 61.9 175.4 80.2 175.4 102.7C175.4 125.2 157.1 143.5 134.6 143.5C112.1 143.5 93.8 125.2 93.8 102.7V102.7ZM296.8 409.3C296.8 431.8 278.5 450.1 256 450.1C233.5 450.1 215.2 431.8 215.2 409.3C215.2 386.8 233.5 368.5 256 368.5C278.5 368.5 296.8 386.8 296.8 409.3ZM377.4 143.6C354.9 143.6 336.6 125.3 336.6 102.8C336.6 80.3 354.9 62 377.4 62C399.9 62 418.2 80.3 418.2 102.8C418.2 125.2 399.9 143.6 377.4 143.6Z" fill="#030D1A"/>
</svg>
