<svg width="33" height="40" viewBox="0 0 33 40" fill="none" xmlns="http://www.w3.org/2000/svg">
<path opacity="0.7" d="M18.5 2C18.5 0.895431 17.6046 0 16.5 0C15.3954 0 14.5 0.895431 14.5 2H18.5ZM16.5 37.5L15.0858 38.9142C15.8668 39.6953 17.1332 39.6953 17.9142 38.9142L16.5 37.5ZM31.9142 24.9142C32.6953 24.1332 32.6953 22.8668 31.9142 22.0858C31.1332 21.3047 29.8668 21.3047 29.0858 22.0858L31.9142 24.9142ZM3.91421 22.0858C3.13316 21.3047 1.86684 21.3047 1.08579 22.0858C0.304738 22.8668 0.304738 24.1332 1.08579 24.9142L3.91421 22.0858ZM14.5 2V37.5H18.5V2H14.5ZM17.9142 38.9142L31.9142 24.9142L29.0858 22.0858L15.0858 36.0858L17.9142 38.9142ZM17.9142 36.0858L3.91421 22.0858L1.08579 24.9142L15.0858 38.9142L17.9142 36.0858Z" fill="#E1EBF7"/>
</svg>
