<svg width="512" height="512" viewBox="0 0 512 512" fill="none" xmlns="http://www.w3.org/2000/svg">
<path d="M463 192H315.9L271.2 58.6C269 52.1 262.9 48 256 48C249.1 48 243 52.1 240.8 58.6L196.1 192H48C39.2 192 32 199.2 32 208C32 208.9 32.1 209.9 32.3 210.7C32.5 214.2 34.1 218.1 39 222L159.9 307.2L113.5 442.1C111.2 448.6 113.5 455.9 119 460.1C121.9 462.2 124.6 464 128 464C131.3 464 135.2 462.3 138 460.4L256 376.3L374 460.4C376.8 462.4 380.7 464 384 464C387.4 464 390.1 462.3 392.9 460.1C398.5 455.9 400.7 448.7 398.4 442.1L352 307.2L471.9 221.2L474.8 218.7C477.4 215.9 480 212.1 480 208C480 199.2 471.8 192 463 192V192Z" fill="#030D1A"/>
</svg>
